<svg width="32" height="32" viewBox="0 0 70 70" fill="none" xmlns="http://www.w3.org/2000/svg">
<path d="M34.431 60.9976C30.7722 60.9594 27.274 60.1803 23.9219 58.8204C21.2003 57.7163 18.71 56.2011 16.4315 54.3538C12.9333 51.517 10.1216 48.1496 8.347 44.0367C7.60452 42.3183 7.02758 40.514 6.56262 38.7001C6.23398 37.4215 6.19503 36.0664 6.06845 34.7424C5.86396 32.5892 6.12931 30.4526 6.70868 28.3973C7.29536 26.3253 8.17172 24.3202 9.52522 22.5899C10.5233 21.3137 11.5871 20.0782 12.7093 18.9047C14.187 17.3609 15.9543 16.154 17.7728 15.0308C20.1024 13.5944 22.5344 12.323 25.1221 11.4101C27.2546 10.6549 29.4479 10.0526 31.6364 9.46474C33.5619 8.94614 35.5508 8.9318 37.5275 9.08475C39.5675 9.24248 41.5466 9.69656 43.4868 10.3442C45.8773 11.1448 48.1534 12.1772 50.2956 13.4821C53.0489 15.1574 55.4881 17.1936 57.6547 19.5667C59.8504 21.971 61.4255 24.736 62.6159 27.7019C63.149 29.0283 63.3462 30.4909 63.6139 31.9081C63.816 32.9739 63.9767 34.0613 63.9961 35.1439C64.0521 38.1719 63.4995 41.1043 62.3919 43.9363C61.5448 46.1039 60.3811 48.0899 58.9351 49.9301C57.4672 51.799 55.7145 53.3835 53.7841 54.7553C51.6783 56.2513 49.4071 57.4845 46.9801 58.4404C44.2073 59.5326 41.3519 60.3189 38.3941 60.7132C37.082 60.8877 35.7504 60.9092 34.4286 61L34.431 60.9976ZM22.9555 25.1136C22.8654 24.8412 22.8508 24.7289 22.7948 24.6404C22.1692 23.6439 21.5485 22.6449 20.8985 21.6674C20.7865 21.5001 20.5552 21.3807 20.3532 21.3042C19.4379 20.9576 18.4933 20.6733 17.5951 20.2861C17.023 20.0399 16.5848 19.9396 16.1077 20.4701C15.5527 21.0843 14.9197 21.6292 14.3136 22.198C12.8822 23.5387 11.9523 25.2307 11.0686 26.9204C10.5842 27.85 10.3626 28.935 10.1581 29.977C9.91958 31.1959 9.73457 32.441 9.70536 33.6766C9.68102 34.7353 9.86603 35.8035 10.0364 36.8575C10.2068 37.9066 10.3675 38.9797 10.7327 39.9715C11.1611 41.1377 11.4118 42.3781 12.1446 43.444C12.7142 44.2733 13.0915 45.2316 13.6782 46.0466C15.5673 48.6754 17.7801 51.0151 20.4846 52.8529C21.6629 53.6535 22.9336 54.3394 24.2068 54.9895C25.7258 55.7662 27.3057 56.4258 29.0073 56.7126C30.3583 56.9396 31.7167 57.1308 33.0799 57.2837C33.7202 57.3554 34.3775 57.2957 35.0274 57.2957C35.2709 55.5702 35.1005 53.9212 34.84 52.2817C34.6817 51.2899 34.4213 50.3173 34.2241 49.3302C33.988 48.1449 33.6423 46.9929 33.0629 45.9294C32.6539 45.1814 32.1257 44.572 31.1885 44.3497C29.9421 44.0534 28.7127 44.1944 27.4883 44.345C24.5646 44.7034 21.6337 44.8205 18.693 44.7871C18.1112 44.7799 17.617 44.5529 17.4101 43.9387C17.2689 43.5181 17.096 43.1046 16.95 42.6864C16.7504 42.1128 16.7382 41.642 17.5172 41.2333C20.0148 39.9213 22.454 38.5041 24.9638 37.2184C26.5048 36.4297 28.1382 35.8131 29.7303 35.1177C29.8763 35.0531 30.0175 34.9862 30.2318 34.8882C29.6378 34.0637 29.056 33.3157 28.5472 32.5246C28.0993 31.8292 27.5004 31.6738 26.7093 31.724C25.0052 31.834 23.3231 31.6332 21.7116 31.0596C21.2953 30.9115 20.8936 30.6653 20.5601 30.3785C20.0976 29.9842 20.268 29.3126 20.8547 29.1215C21.1005 29.0402 21.3878 29.0044 21.6434 29.0426C22.5709 29.1764 23.4886 29.3724 24.4161 29.4967C24.9663 29.5708 25.5286 29.5612 26.0861 29.5899C26.1128 29.5397 26.1396 29.4871 26.1664 29.4369C25.7818 28.9112 25.3752 28.3997 25.0198 27.8572C24.7326 27.4175 24.3139 27.286 23.8319 27.2239C23.0212 27.1164 22.1911 27.0733 21.4073 26.8678C19.7689 26.44 18.267 25.7207 17.0547 24.5162C16.8575 24.3202 16.6871 24.0884 16.541 23.8494C16.3097 23.4694 16.227 23.0583 16.5921 22.719C16.9573 22.3796 17.376 22.4943 17.7606 22.707C18.8244 23.2926 19.8639 23.9306 20.952 24.4684C21.5314 24.7552 22.196 24.877 22.9531 25.116L22.9555 25.1136ZM37.6541 37.7131C37.8099 37.9353 37.8975 38.0907 38.0144 38.2245C38.898 39.2187 39.7744 40.2176 40.6775 41.1951C41.7803 42.3924 42.8563 43.6184 44.0321 44.7417C45.8237 46.4504 47.9781 47.698 50.0352 49.0602C50.8604 49.6075 51.7903 50.0066 52.691 50.4391C52.8322 50.5061 53.1268 50.4559 53.2461 50.3483C55.157 48.642 56.8002 46.7277 58.0052 44.4645C58.8767 42.8298 59.4123 41.0995 59.7945 39.3023C60.2253 37.2805 60.347 35.2419 60.0208 33.2129C59.7019 31.2365 59.2321 29.2888 58.3777 27.439C57.3431 25.1949 55.9531 23.2017 54.2977 21.3711C54.2612 21.383 54.2222 21.3854 54.1979 21.4046C52.1993 22.8911 49.8988 23.5554 47.4426 23.8303C47.0287 23.8757 46.5613 24.0979 46.2668 24.3871C45.1713 25.4554 44.1367 26.581 43.0851 27.6899C42.9804 27.7999 42.9074 27.9361 42.754 28.1583C43.0583 28.1583 43.2409 28.1918 43.4089 28.1536C44.2073 27.9719 45.0326 27.8477 45.7921 27.5633C47.1529 27.0542 48.4699 26.4305 49.8185 25.8903C50.1642 25.7517 50.5634 25.6848 50.9407 25.6824C51.5956 25.6776 51.9778 26.3014 51.6613 26.8654C51.4982 27.157 51.2329 27.4223 50.9553 27.6158C47.9635 29.6902 44.6747 30.7561 40.9721 30.4024C40.4974 30.357 40.0568 30.455 39.6551 30.7729C38.4233 31.7503 37.2083 32.9082 36.4537 34.2657C36.366 34.4258 36.2635 34.7047 36.1904 34.9365C37.3054 34.8265 38.6595 34.6923 39.6819 34.5465C40.4755 34.4341 41.252 34.2119 42.0408 34.0685C42.2331 34.0326 42.5398 34.0446 42.625 34.1593C42.7346 34.3051 42.7638 34.6229 42.6737 34.7831C42.4717 35.1463 42.2404 35.567 41.8996 35.7701C41.0622 36.272 40.1639 36.683 39.2729 37.0965C38.7788 37.3259 38.2481 37.486 37.6492 37.7107L37.6541 37.7131ZM36.4272 30.1945C36.4832 30.2256 36.5391 30.2566 36.5976 30.2901C36.9822 29.879 37.3376 29.4345 37.7563 29.0617C38.3503 28.5335 38.7787 27.9863 38.9102 27.1426C39.1682 25.465 39.5261 23.8088 39.4409 22.0952C39.4068 21.4093 39.419 20.7163 39.475 20.0328C39.5066 19.6528 39.7671 19.3684 40.1907 19.3062C40.6264 19.2441 40.8869 19.4879 41.0646 19.832C41.1547 20.0065 41.2131 20.2001 41.2642 20.3889C41.6561 21.8873 41.5393 23.3929 41.3519 24.9033C41.3153 25.1973 41.3153 25.496 41.2934 25.8569C41.4492 25.7852 41.5223 25.7732 41.5636 25.7302C42.5082 24.7265 43.4551 23.7251 44.3826 22.7046C44.5165 22.5565 44.5968 22.3175 44.6114 22.1167C44.7599 20.016 44.8768 17.9106 45.0301 15.8099C45.0934 14.9376 44.8451 14.45 43.9152 14.0772C41.3056 13.028 38.6327 12.3589 35.821 12.28C32.9704 12.2011 30.2756 12.9229 27.6587 13.9649C27.5272 14.0175 27.4152 14.1728 27.3422 14.3042C27.1036 14.7368 26.8943 15.1837 26.663 15.6187C25.8718 17.1052 25.0783 18.5917 24.2847 20.0758C23.8343 20.9194 23.7832 21.7296 24.4405 22.5063C24.589 22.6831 24.6863 22.8982 24.8178 23.0894C25.0442 23.424 25.2803 23.7538 25.5919 24.2031C25.7672 23.8398 25.8889 23.6128 25.9887 23.3786C26.7044 21.6627 27.6124 20.0543 28.7468 18.5726C28.9756 18.2762 29.2653 18.0014 29.5794 17.7958C30.1417 17.4326 30.8111 17.7815 30.7771 18.4363C30.7551 18.8307 30.6188 19.2489 30.4289 19.6002C29.6134 21.1106 28.7566 22.5995 27.9167 24.1003C27.2473 25.2953 26.9819 26.4687 28.1504 27.5441C28.1747 27.5656 28.1893 27.5967 28.2088 27.623C28.4425 27.9265 28.5715 27.8931 28.776 27.5513C29.4455 26.4329 30.1271 25.3144 30.8769 24.2485C31.2615 23.7012 31.7581 23.2065 32.2863 22.7883C32.7732 22.4035 33.4621 22.7716 33.4719 23.3905C33.4767 23.7036 33.3915 24.0573 33.2357 24.3298C32.8122 25.0587 32.301 25.735 31.8774 26.4615C31.281 27.4868 30.7162 28.5312 30.1733 29.5851C30.0662 29.7954 30.0127 30.1515 30.1222 30.3307C30.8866 31.5878 31.6924 32.8186 32.5079 34.0422C32.559 34.1187 32.873 34.1474 32.9314 34.0828C33.2211 33.7554 33.5619 33.4256 33.708 33.0313C33.9977 32.257 34.263 31.4707 34.1705 30.596C34.1048 29.9675 34.1997 29.3198 34.2509 28.6841C34.3263 27.7329 34.3872 26.7794 34.5235 25.8378C34.6063 25.2618 35.0177 24.9368 35.451 24.9607C36.0206 24.9894 36.2373 25.398 36.2982 25.8545C36.3882 26.5165 36.4101 27.1904 36.4272 27.8596C36.4466 28.6363 36.432 29.4154 36.432 30.1945H36.4272ZM50.5999 17.9823C49.911 19.139 49.2683 20.2216 48.5624 21.4093C50.2056 21.2038 51.4836 20.5944 52.7738 19.7986C52.0313 19.1772 51.3327 18.5964 50.5999 17.9823ZM21.0884 16.9857C21.4121 17.8221 21.7262 18.5964 22.2642 19.3899C22.9701 17.987 23.6128 16.7037 24.3358 15.265C23.1965 15.8696 22.1765 16.4097 21.0884 16.9857ZM47.0385 19.2369L47.187 19.2991C47.6738 18.4865 48.1656 17.674 48.6378 16.8542C48.6744 16.7921 48.6208 16.6152 48.5551 16.5746C48.0974 16.2878 47.6252 16.0226 47.0385 15.6832V19.2393V19.2369ZM18.3083 18.7661C18.7636 18.888 19.0898 18.9764 19.4184 19.0649C19.4427 19.0147 19.4671 18.9669 19.4914 18.9167C19.3819 18.6897 19.2748 18.4626 19.1579 18.2165C18.8901 18.3909 18.6613 18.5367 18.3059 18.7661H18.3083Z" fill="#233516"/>
</svg>
